<!DOCTYPE svg PUBLIC "-//W3C//DTD SVG 20010904//EN" "http://www.w3.org/TR/2001/REC-SVG-20010904/DTD/svg10.dtd">
<svg version="1.0" xmlns="http://www.w3.org/2000/svg" width="512px" height="512px" viewBox="0 0 5120 5120" preserveAspectRatio="xMidYMid meet">
<g id="layer101" fill="#304a5f" stroke="none">
<path d="M0 2560 l0 -2560 2560 0 2560 0 0 2560 0 2560 -2560 0 -2560 0 0 -2560z"/>
</g>
<g id="layer102" fill="#108775" stroke="none">
<path d="M0 2560 l0 -2560 2560 0 2560 0 0 2560 0 2560 -2560 0 -2560 0 0 -2560z m3843 1576 c105 -46 156 -153 123 -254 -12 -37 -1108 -1974 -1131 -2000 -4 -5 -1102 1923 -1118 1966 -38 95 -13 215 52 262 71 50 40 49 1063 49 l957 1 54 -24z"/>
</g>
<g id="layer103" fill="#04c58f" stroke="none">
<path d="M0 2560 l0 -2560 2560 0 2560 0 0 2560 0 2560 -2560 0 -2560 0 0 -2560z m4545 1569 c100 -51 139 -157 98 -264 -23 -59 -1241 -2242 -1278 -2291 -31 -40 -100 -83 -147 -90 -51 -9 -111 12 -157 54 -22 20 -81 102 -130 182 -127 206 -1182 2051 -1208 2113 -44 104 -24 227 46 277 72 51 11 49 1416 47 l1311 -2 49 -26z"/>
<path d="M2840 1880 c0 -7 3 -10 7 -7 3 4 3 10 0 14 -4 3 -7 0 -7 -7z"/>
</g>
<g id="layer104" fill="#ffffff" stroke="none">
<path d="M0 2560 l0 -2560 2560 0 2560 0 0 2560 0 2560 -2560 0 -2560 0 0 -2560z m4545 1569 c100 -51 139 -157 98 -264 -23 -59 -1241 -2242 -1278 -2291 -31 -40 -100 -83 -147 -90 -51 -9 -111 12 -157 54 -22 20 -80 102 -128 180 -49 79 -92 144 -97 144 -6 0 -107 -176 -226 -391 -139 -252 -229 -405 -255 -431 -105 -107 -253 -89 -339 43 -70 107 -1540 2724 -1558 2772 -49 138 7 255 142 296 14 4 896 7 1960 6 l1936 -2 49 -26z"/>
<path d="M710 3907 c0 -7 1481 -2632 1489 -2640 5 -5 116 185 250 427 l242 435 -479 838 c-264 461 -488 862 -498 891 l-19 52 -492 0 c-271 0 -493 -1 -493 -3z"/>
<path d="M1970 3904 c0 -10 862 -1516 865 -1512 6 6 865 1510 865 1514 0 2 -389 4 -865 4 -476 0 -865 -3 -865 -6z"/>
<path d="M3955 3857 c-11 -28 -236 -428 -499 -889 l-478 -836 104 -178 c56 -98 107 -178 112 -177 9 1 1196 2110 1196 2126 0 4 -93 7 -207 7 l-208 0 -20 -53z"/>
</g>


</svg>